<svg height="512pt" viewBox="0 0 512 512" width="512pt" xmlns="http://www.w3.org/2000/svg"><path d="m240 512h-192c-26.464844 0-48-21.535156-48-48v-214.625l80-80v-73.375h128v73.375l80 80v214.625c0 26.464844-21.535156 48-48 48zm0 0" fill="#d7dee2"/><path d="m228.632812 123.347656 22.714844-22.71875 80 80-22.71875 22.71875zm0 0" fill="#77959e"/><path d="m80 96h128v64h-128zm0 0" fill="#bfc9d1"/><path d="m228.636719 123.355469 22.71875-22.71875 33.917969 33.917969-22.71875 22.71875zm0 0" fill="#62808c"/><path d="m246.625 128h-214.625v-72l74.671875-56h197.328125v70.625zm0 0" fill="#40a2e7"/><path d="m240 512h-192c-26.464844 0-48-21.535156-48-48v-144h288v144c0 26.464844-21.535156 48-48 48zm0 0" fill="#00ddc2"/><path d="m240 480h-192c-26.464844 0-48-21.535156-48-48v32c0 26.464844 21.535156 48 48 48h192c26.464844 0 48-21.535156 48-48v-32c0 26.464844-21.535156 48-48 48zm0 0" fill="#0ac1a7"/><path d="m416 256c-52.945312 0-96 43.054688-96 96s43.054688 96 96 96 96-43.054688 96-96-43.054688-96-96-96zm0 32c11.839844 0 22.785156 3.441406 32.304688 9.070312l-87.25 87.25c-5.613282-9.535156-9.054688-20.480468-9.054688-32.320312 0-35.296875 28.703125-64 64-64zm0 128c-11.839844 0-22.785156-3.441406-32.304688-9.070312l87.25-87.25c5.613282 9.535156 9.054688 20.480468 9.054688 32.320312 0 35.296875-28.703125 64-64 64zm0 0" fill="#e76e54"/><path d="m176 32h32v32h-32zm0 0" fill="#fff"/><path d="m240 32h32v32h-32zm0 0" fill="#fff"/><path d="m128 128h32v320h-32zm0 0" fill="#bfc9d1"/><path d="m128 320h32v128h-32zm0 0" fill="#0ac1a7"/></svg>