<svg height="512" viewBox="0 0 58 58" width="512" xmlns="http://www.w3.org/2000/svg"><g id="Page-1" fill="none" fill-rule="evenodd"><g id="057---Bean" fill-rule="nonzero" transform="translate(0 -1)"><path id="Shape" d="m42.67 1c-8.0990491-.3363498-15.1700164 5.43727109-16.46 13.44-.1072001.6250492-.1740053 1.2563576-.2 1.89-.268825 1.8564033-.8468285 3.6546366-1.71 5.32-1.3 2.39-3.45 4.91-9.58 5.4-.44 0-.87.09-1.3.16-7.73790417 1.264282-13.41969742 7.9494917-13.42 15.79 0 .42 0 .84.05 1.26.6573886 8.3218668 7.60220823 14.7398381 15.95 14.74h1.3c29.7-2.43 39.38-26.16 40.58-39.72 0-.55.09-1.09.11-1.61.1815028-4.242785-1.3311441-8.38368214-4.2047102-11.51046725-2.8735662-3.12678511-6.872298-4.98292996-11.1152898-5.15953275z" fill="#4fba6f"/><path id="Shape" d="m57.88 19.28c-1.2 13.56-10.88 37.29-40.6 39.72-.44 0-.87 0-1.3 0-8.33300631-.0097489-15.26336474-6.413696-15.93-14.72-.05-.42-.05-.84-.05-1.28 0 .57.45 11.95 18 11 17.34-1 30-11 39.88-34.72z" fill="#24ae5f"/><path id="Shape" d="m32 18.16c-.2822143 2.4783274-.9963377 4.8880708-2.11 7.12-1.53 3-4.5 7-12.55 7.71h-.34c-1.3852684-.0024701-2.6706432-.7215044-3.3976823-1.9006519-.7270391-1.1791474-.7922285-2.650524-.1723177-3.8893481.43-.07.86-.12 1.3-.16 6.13-.49 8.28-3 9.58-5.4.8551748-1.6635085 1.4263733-3.458221 1.69-5.31.0259947-.6336424.0927999-1.2649508.2-1.89 1.2637573-.6380485 2.770644-.5605675 3.9622953.2037331 1.1916514.7643005 1.8905425 2.1015597 1.8377047 3.5162669z" fill="#f9eab0"/></g></g></svg>