<?xml version="1.0" encoding="iso-8859-1"?>
<!-- Generator: Adobe Illustrator 19.0.0, SVG Export Plug-In . SVG Version: 6.00 Build 0)  -->
<svg version="1.1" id="Capa_1" xmlns="http://www.w3.org/2000/svg" xmlns:xlink="http://www.w3.org/1999/xlink" x="0px" y="0px"
	 viewBox="0 0 512 512" style="enable-background:new 0 0 512 512;" xml:space="preserve">
<g>
	<path style="fill:#CFCFCF;" d="M308.068,0H203.932c-14.379,0-26.034,11.655-26.034,26.034v26.034
		c0.009,6.899,2.751,13.52,7.637,18.397l61.787,61.787v327.68h17.356v-327.68l61.787-61.787c4.886-4.877,7.628-11.498,7.637-18.397
		V26.034C334.102,11.655,322.447,0,308.068,0z M316.746,52.068c-0.035,2.3-0.929,4.495-2.517,6.161L256,116.372l-58.229-58.142
		c-1.588-1.666-2.482-3.862-2.517-6.161V26.034c0-4.79,3.888-8.678,8.678-8.678h104.136c4.79,0,8.678,3.888,8.678,8.678V52.068z"/>
	<circle style="fill:#CFCFCF;" cx="47.729" cy="494.644" r="17.356"/>
	<circle style="fill:#CFCFCF;" cx="464.271" cy="494.644" r="17.356"/>
</g>
<path style="fill:#87CED9;" d="M221.288,259.037c-0.017-9.849-5.589-18.857-14.405-23.257l-20.306-10.153v-34.712H65.085v34.712
	L44.778,235.78c-8.817,4.4-14.388,13.407-14.405,23.257v158.98c0,14.379,11.655,26.034,26.034,26.034h138.847
	c14.379,0,26.034-11.655,26.034-26.034V259.037z"/>
<path style="fill:#71C4D1;" d="M30.373,402.571v15.447c0,14.379,11.655,26.034,26.034,26.034h138.847
	c14.379,0,26.034-11.655,26.034-26.034V291.493C176.857,359.962,87.474,389.988,30.373,402.571z"/>
<rect x="4.339" y="442.576" style="fill:#CFCFCF;" width="503.322" height="34.712"/>
<g>
	<rect x="65.085" y="250.186" style="fill:#5BB8C7;" width="17.356" height="166.357"/>
	<rect x="169.22" y="250.186" style="fill:#5BB8C7;" width="17.356" height="166.357"/>
	<rect x="117.153" y="250.186" style="fill:#5BB8C7;" width="17.356" height="166.357"/>
</g>
<path style="fill:#87CED9;" d="M481.627,259.037c-0.017-9.849-5.589-18.857-14.405-23.257l-20.306-10.153v-34.712H325.424v34.712
	l-20.306,10.153c-8.817,4.4-14.388,13.407-14.405,23.257v158.98c0,14.379,11.655,26.034,26.034,26.034h138.847
	c14.379,0,26.034-11.655,26.034-26.034V259.037z"/>
<path style="fill:#71C4D1;" d="M290.712,402.571v15.447c0,14.379,11.655,26.034,26.034,26.034h138.847
	c14.379,0,26.034-11.655,26.034-26.034V291.493C437.196,359.962,347.813,389.988,290.712,402.571z"/>
<g>
	<rect x="325.424" y="251.661" style="fill:#5BB8C7;" width="17.356" height="166.357"/>
	<rect x="429.559" y="251.661" style="fill:#5BB8C7;" width="17.356" height="166.357"/>
	<rect x="377.492" y="251.661" style="fill:#5BB8C7;" width="17.356" height="166.357"/>
</g>
<rect x="4.339" y="303.729" style="fill:#CFCFCF;" width="503.322" height="34.712"/>
<rect x="65.085" y="190.915" style="fill:#71C4D1;" width="121.492" height="26.034"/>
<g>
	<path style="fill:#4398D1;" d="M91.119,104.136h69.424c19.17,0,34.712,15.542,34.712,34.712v52.068l0,0H56.407l0,0v-52.068
		C56.407,119.678,71.949,104.136,91.119,104.136z"/>
	<path style="fill:#4398D1;" d="M203.932,199.593H47.729c-4.79,0-8.678-3.888-8.678-8.678s3.888-8.678,8.678-8.678h156.203
		c4.79,0,8.678,3.888,8.678,8.678S208.722,199.593,203.932,199.593z"/>
</g>
<rect x="117.153" y="130.169" style="fill:#126099;" width="17.356" height="17.356"/>
<rect x="325.424" y="190.915" style="fill:#71C4D1;" width="121.492" height="26.034"/>
<g>
	<path style="fill:#4398D1;" d="M351.458,104.136h69.424c19.17,0,34.712,15.542,34.712,34.712v52.068l0,0H316.746l0,0v-52.068
		C316.746,119.678,332.288,104.136,351.458,104.136z"/>
	<path style="fill:#4398D1;" d="M464.271,199.593H308.068c-4.79,0-8.678-3.888-8.678-8.678s3.888-8.678,8.678-8.678h156.203
		c4.79,0,8.678,3.888,8.678,8.678S469.061,199.593,464.271,199.593z"/>
</g>
<g>
	<rect x="377.492" y="130.169" style="fill:#126099;" width="17.356" height="17.356"/>
	<rect x="342.78" y="147.525" style="fill:#126099;" width="17.356" height="17.356"/>
	<rect x="412.203" y="147.525" style="fill:#126099;" width="17.356" height="17.356"/>
</g>
<g>
</g>
<g>
</g>
<g>
</g>
<g>
</g>
<g>
</g>
<g>
</g>
<g>
</g>
<g>
</g>
<g>
</g>
<g>
</g>
<g>
</g>
<g>
</g>
<g>
</g>
<g>
</g>
<g>
</g>
</svg>
