<svg id="Capa_1" enable-background="new 0 0 512 512" height="512" viewBox="0 0 512 512" width="512" xmlns="http://www.w3.org/2000/svg"><g id="XMLID_524_"><g id="XMLID_528_"><path id="XMLID_1581_" d="m354.375 425.75h-196.75c-20.471 0-37.125-16.654-37.125-37.125v-206.097l271-.604v206.701c0 20.471-16.654 37.125-37.125 37.125z" fill="#774e2e"/></g><path id="XMLID_1731_" d="m256 425.75h98.375c20.471 0 37.125-16.654 37.125-37.125v-206.701l-135.5.302z" fill="#553621"/><g id="XMLID_526_"><path id="XMLID_1587_" d="m219.668 298.113 36.332-30.976 36.332 30.976v33.292c0 5.359-2.859 10.311-7.5 12.99l-21.332 12.317c-4.641 2.679-10.359 2.679-15 0l-21.332-12.316c-4.641-2.679-7.5-7.631-7.5-12.99z" fill="#f5d953"/></g><path id="XMLID_1705_" d="m263.5 356.712 21.332-12.316c4.641-2.679 7.5-7.631 7.5-12.99v-33.292l-36.332-30.978v91.585c2.59 0 5.179-.67 7.5-2.009z" fill="#edbd2d"/><g id="XMLID_523_"><path id="XMLID_1585_" d="m190.836 230.854 21.332-12.316c4.641-2.68 10.359-2.68 15 0l28.832 16.647 9 18.19-9 23.762-36.332 20.977-28.832-16.646c-4.641-2.68-7.5-7.631-7.5-12.99v-24.632c0-5.36 2.859-10.312 7.5-12.992z" fill="#f5d953"/></g><g id="XMLID_525_"><path id="XMLID_1582_" d="m256 235.185 28.832-16.646c4.641-2.68 10.359-2.68 15 0l21.332 12.316c4.641 2.679 7.5 7.631 7.5 12.99v24.632c0 5.359-2.859 10.311-7.5 12.99l-28.832 16.646-36.332-20.976z" fill="#e48f22"/></g><g id="XMLID_531_"><path id="XMLID_100_" d="m370.108 197.523c-11.053 0-23.94-2.562-37.694-10.275-8.464 4.221-22.192 9.376-38.732 9.377-11.478.001-24.309-2.482-37.682-9.48-32.644 17.082-62.076 7.253-76.415.103-22.635 12.694-42.927 11.436-56.548 7.767-16.232-4.372-26.428-13.004-27.537-13.974-5.139-4.495-6.595-11.893-3.541-18l15.726-31.453c1.976-20.78 19.526-37.089 40.814-37.089h215.001c21.288 0 38.839 16.309 40.815 37.088l15.726 31.454c3.054 6.106 1.598 13.505-3.541 18-1.109.97-11.305 9.602-27.537 13.974-5.345 1.44-11.718 2.508-18.855 2.508z" fill="#f5f5fc"/></g><path id="XMLID_1672_" d="m404.315 131.588c-1.976-20.779-19.527-37.088-40.815-37.088h-107.5v92.646c13.373 6.998 26.204 9.481 37.682 9.48 16.54-.001 30.269-5.157 38.732-9.377 13.754 7.713 26.642 10.275 37.694 10.275 7.137 0 13.51-1.068 18.854-2.508 16.232-4.372 26.428-13.004 27.537-13.974 5.139-4.495 6.595-11.893 3.541-18z" fill="#e4e4f0"/><g id="XMLID_621_"><path d="m437.02 74.98c-48.353-48.351-112.64-74.98-181.02-74.98s-132.667 26.629-181.02 74.98c-48.351 48.353-74.98 112.64-74.98 181.02s26.629 132.667 74.98 181.02c48.353 48.351 112.64 74.98 181.02 74.98s132.667-26.629 181.02-74.98c48.351-48.353 74.98-112.64 74.98-181.02s-26.629-132.667-74.98-181.02zm-407.02 181.02c0-124.617 101.383-226 226-226 56.922 0 108.989 21.162 148.768 56.02l-318.748 318.747c-34.858-39.778-56.02-91.845-56.02-148.767zm226 226c-56.922 0-108.989-21.162-148.767-56.02l318.748-318.748c34.858 39.78 56.019 91.846 56.019 148.768 0 124.617-101.383 226-226 226z" fill="#d33c19"/></g><g id="XMLID_620_"><path d="m404.768 86.02-148.768 148.767v42.426l169.981-169.98c34.858 39.779 56.019 91.845 56.019 148.767 0 124.617-101.383 226-226 226v30c68.38 0 132.667-26.629 181.02-74.98 48.351-48.353 74.98-112.64 74.98-181.02s-26.629-132.667-74.98-181.02c-48.353-48.351-112.64-74.98-181.02-74.98v30c56.922 0 108.989 21.162 148.768 56.02z" fill="#af0609"/></g></g></svg>