<svg id="Capa_1" enable-background="new 0 0 512 512" height="512" viewBox="0 0 512 512" width="512" xmlns="http://www.w3.org/2000/svg"><g id="XMLID_79_"><path id="XMLID_754_" d="m340.836 179.187c-17.013-40.516-45.541-88.812-84.836-88.812-39.294 0-67.823 48.296-84.835 88.812-18.006 42.881-30.581 95.114-30.581 127.021 0 63.641 51.776 115.417 115.417 115.417 63.642 0 115.417-51.775 115.417-115.417-.001-31.907-12.576-84.141-30.582-127.021z" fill="#faf1df"/><path id="XMLID_909_" d="m371.417 306.208c0-31.908-12.575-84.141-30.581-127.021-17.013-40.516-45.541-88.812-84.836-88.812v331.25c63.642 0 115.417-51.775 115.417-115.417z" fill="#f8e4bd"/><path id="XMLID_751_" d="m437.02 74.98c-48.353-48.351-112.64-74.98-181.02-74.98s-132.667 26.629-181.02 74.98c-48.351 48.353-74.98 112.64-74.98 181.02s26.629 132.667 74.98 181.02c48.353 48.351 112.64 74.98 181.02 74.98s132.667-26.629 181.02-74.98c48.351-48.353 74.98-112.64 74.98-181.02s-26.629-132.667-74.98-181.02zm-407.02 181.02c0-124.617 101.383-226 226-226 56.922 0 108.989 21.162 148.768 56.02l-318.748 318.747c-34.858-39.778-56.02-91.845-56.02-148.767zm226 226c-56.922 0-108.989-21.162-148.767-56.02l318.748-318.748c34.858 39.78 56.019 91.846 56.019 148.768 0 124.617-101.383 226-226 226z" fill="#d33c19"/><path id="XMLID_962_" d="m404.768 86.02-148.768 148.767v42.426l169.981-169.98c34.858 39.779 56.019 91.845 56.019 148.767 0 124.617-101.383 226-226 226v30c68.38 0 132.667-26.629 181.02-74.98 48.351-48.353 74.98-112.64 74.98-181.02s-26.629-132.667-74.98-181.02c-48.353-48.351-112.64-74.98-181.02-74.98v30c56.922 0 108.989 21.162 148.768 56.02z" fill="#af0609"/></g></svg>