<svg height="512pt" viewBox="-64 0 512 512" width="512pt" xmlns="http://www.w3.org/2000/svg"><path d="m352 512h-320c-17.679688 0-32-14.320312-32-32v-374.625l105.375-105.375h278.625v480c0 17.679688-14.320312 32-32 32zm0 0" fill="#898890"/><path d="m384 0v480c0 17.679688-14.320312 32-32 32h-320c-17.679688 0-32-14.320312-32-32v-374.558594l105.441406-105.441406zm0 0" fill="#d7dee2"/><path d="m159.9375 271.984375c-19.441406 0-50.738281-3.648437-71.503906-24.417969-31.328125-31.328125-23.699219-86.621094-23.363282-88.972656l1.714844-11.808594 11.808594-1.714844c2.316406-.335937 57.664062-7.949218 88.957031 23.363282 31.328125 31.328125 23.695313 86.621094 23.359375 88.972656l-1.710937 11.808594-11.808594 1.714844c-.78125.109374-7.597656 1.054687-17.453125 1.054687zm0 0" fill="#addb31"/><path d="m160 288h32v144h-32zm0 0" fill="#77959e"/><path d="m179.664062 184.976562c-4.207031-.59375-23.761718 13.535157-28.753906 21.695313-13.277344 21.742187-43.886718 27.167969-62.0625 9.296875-.144531-.128906-.273437-.273438-.414062-.417969-15.679688-15.664062-21.601563-37.34375-23.554688-55.375-1.101562 9.375-5.3125 58.511719 23.554688 87.375 20.765625 20.769531 52.0625 24.417969 71.503906 24.417969 9.855469 0 16.671875-.945312 17.453125-1.058594l11.808594-1.710937 1.710937-11.808594c.304688-1.964844 5.648438-41.3125-11.246094-72.414063zm0 0" fill="#6fbb2e"/><path d="m0 416h384v32h-384zm0 0" fill="#bfc9d1"/><path d="m384 64v32h-374.558594l32-32zm0 0" fill="#bfc9d1"/><path d="m160 364.785156 10.289062 1.503906c1.679688.253907 9.96875 1.296876 21.710938 1.582032v-79.871094h-32zm0 0" fill="#62808c"/><path d="m197.648438 336c-12.847657 0-21.710938-1.230469-22.738282-1.375l-11.804687-1.714844-1.714844-11.804687c-.429687-3.007813-10.269531-74.195313 29.648437-114.082031 39.890626-39.871094 111.074219-30.078126 114.082032-29.648438l11.808594 1.714844 1.710937 11.804687c.429687 3.007813 10.269531 74.195313-29.648437 114.082031-26.351563 26.367188-66.367188 31.023438-91.34375 31.023438zm0 0" fill="#addb31"/><path d="m288.992188 272.992188c-26.351563 26.351562-66.367188 31.007812-91.34375 31.007812-.929688 0-1.839844 0-2.71875-.015625-13.203126-.175781-25.746094-6.6875-32.640626-17.953125-.929687-1.519531-1.535156-2.75-1.601562-3.488281-1.695312 20.914062.496094 37.136719.703125 38.546875l1.714844 11.804687 11.804687 1.714844c1.011719.160156 9.890625 1.390625 22.738282 1.390625 24.992187 0 65.007812-4.65625 91.34375-31.007812 33.457031-33.425782 31.953124-88.703126 30.335937-107.535157-1.9375 24-9.007813 54.207031-30.335937 75.535157zm0 0" fill="#6fbb2e"/><path d="m256 208h32v32h-32zm0 0" fill="#fff"/></svg>