<svg id="Capa_1" enable-background="new 0 0 512 512" height="512" viewBox="0 0 512 512" width="512" xmlns="http://www.w3.org/2000/svg"><g><path d="m191.48 458.927h274.732c11.495 0 20.813-9.318 20.813-20.813v-246.319c0-8.281 3.153-16.319 9.025-22.159 10.256-10.2 15.95-21.466 15.95-33.311 0-45.979-85.728-83.252-191.48-83.252h-129.04z" fill="#b78b7a"/><path d="m442.33 261.851c-73.866 73.867-167.397 111.154-250.85 108.174v88.901h274.732c11.495 0 20.813-9.318 20.813-20.813v-229.403c-12.98 18.497-27.885 36.331-44.695 53.141z" fill="#aa7a63"/><path d="m382.959 136.325c0-45.979-85.728-83.252-191.48-83.252s-191.479 37.273-191.479 83.252c0 11.845 5.693 23.11 15.95 33.311 5.872 5.84 9.025 13.878 9.025 22.159v246.319c0 11.495 9.318 20.813 20.813 20.813h291.382c11.495 0 20.813-9.318 20.813-20.813v-246.319c0-8.281 3.153-16.319 9.025-22.159 10.258-10.2 15.951-21.466 15.951-33.311z" fill="#e7a561"/><path d="m382.959 136.325c0-45.979-85.728-83.252-191.48-83.252s-191.479 37.273-191.479 83.252c0 11.845 5.693 23.11 15.95 33.311 5.872 5.84 9.025 13.878 9.025 22.159v246.319c0 11.495 9.318 20.813 20.813 20.813h291.382c11.495 0 20.813-9.318 20.813-20.813v-246.319c0-8.281 3.153-16.319 9.025-22.159 10.258-10.2 15.951-21.466 15.951-33.311z" fill="#e7a561"/><path d="m317.452 320.574c-86.45 86.45-199.836 122.807-292.476 103.129v14.411c0 11.495 9.318 20.813 20.813 20.813h291.382c11.495 0 20.813-9.318 20.813-20.813v-164.857c-11.977 16.419-25.493 32.277-40.532 47.317z" fill="#e49542"/><path d="m58.276 425.626v-233.831c0-17.179-6.868-33.862-18.844-45.771-4.521-4.496-6.132-7.958-6.132-9.699 0-4.128 8.815-16.483 36.06-28.329 31.605-13.741 76.115-21.622 122.118-21.622s90.514 7.881 122.119 21.622c27.245 11.846 36.06 24.201 36.06 28.329 0 1.74-1.611 5.203-6.132 9.699-11.975 11.909-18.843 28.592-18.843 45.771v233.832h-266.406z" fill="#f1d0a5"/><g fill="#f1b986"><path d="m317.452 320.574c-58.899 58.899-130.3 94.537-199.126 105.052h206.357v-112.493c-2.375 2.499-4.775 4.985-7.231 7.441z"/><g><circle cx="96.78" cy="185.236" r="10.407"/><circle cx="96.78" cy="143.61" r="10.407"/><circle cx="138.406" cy="143.61" r="10.407"/></g></g></g></svg>