<svg height="512pt" viewBox="-93 0 512 512.00046" width="512pt" xmlns="http://www.w3.org/2000/svg"><path d="m322.617188 131.179688c-2.835938-3.054688-6.816407-4.789063-10.984376-4.789063h-228.347656c-4.167968 0-8.148437 1.734375-10.988281 4.789063-2.835937 3.054687-4.273437 7.148437-3.972656 11.304687l26.019531 355.609375c.570312 7.839844 7.101562 13.90625 14.957031 13.90625h176.328125c7.859375 0 14.386719-6.066406 14.960938-13.90625l26-355.609375c.304687-4.15625-1.132813-8.253906-3.972656-11.304687zm0 0" fill="#f2f2fc"/><path d="m322.617188 131.179688c-2.835938-3.054688-6.816407-4.789063-10.984376-4.789063h-113.996093v385.609375h87.992187c7.859375 0 14.386719-6.066406 14.960938-13.90625l26-355.609375c.304687-4.15625-1.132813-8.253906-3.972656-11.304687zm0 0" fill="#d7e9ff"/><path d="m233.855469 270.4375c-.921875 0-1.855469-.085938-2.796875-.261719-8.140625-1.535156-13.496094-9.378906-11.960938-17.523437l45.332032-240.429688c1.535156-8.140625 9.375-13.496094 17.519531-11.960937 8.140625 1.535156 13.496093 9.378906 11.960937 17.519531l-45.332031 240.433594c-1.355469 7.199218-7.652344 12.222656-14.722656 12.222656zm0 0" fill="#17aac8"/><path d="m75.546875 241.175781 18.796875 256.917969c.570312 7.839844 7.101562 13.90625 14.957031 13.90625h176.328125c7.859375 0 14.386719-6.066406 14.960938-13.90625l18.785156-256.917969zm0 0" fill="#ffdb2d"/><path d="m197.636719 241.175781v270.824219h87.992187c7.859375 0 14.386719-6.066406 14.960938-13.90625l18.785156-256.917969zm0 0" fill="#fdbf00"/><path d="m81.933594 58.136719c-45.179688 0-81.933594 36.757812-81.933594 81.933593 0 45.179688 36.753906 81.933594 81.933594 81.933594 45.175781 0 81.933594-36.753906 81.933594-81.933594 0-45.175781-36.757813-81.933593-81.933594-81.933593zm0 0" fill="#ffa100"/><path d="m81.933594 192.003906c-28.636719 0-51.933594-23.296875-51.933594-51.933594 0-28.632812 23.296875-51.929687 51.933594-51.929687 28.636718 0 51.933594 23.296875 51.933594 51.929687 0 28.636719-23.296876 51.933594-51.933594 51.933594zm0 0" fill="#ffdb2d"/><path d="m163.867188 140.070312c0-4.660156-.414063-9.226562-1.164063-13.679687h-79.417969c-4.167968 0-8.148437 1.734375-10.988281 4.789063-2.835937 3.054687-4.273437 7.148437-3.972656 11.308593l5.792969 79.132813c2.574218.246094 5.179687.382812 7.816406.382812 45.175781 0 81.933594-36.753906 81.933594-81.933594zm0 0" fill="#ffc766"/><path d="m133.867188 140.070312c0-4.734374-.652344-9.316406-1.84375-13.679687h-48.738282c-4.167968 0-8.148437 1.734375-10.988281 4.789063-2.835937 3.054687-4.273437 7.148437-3.972656 11.308593l3.550781 48.53125c3.257812.640625 6.617188.984375 10.058594.984375 28.636718 0 51.933594-23.296875 51.933594-51.933594zm0 0" fill="#ffe981"/></svg>