<svg height="512" viewBox="0 0 512 512" width="512" xmlns="http://www.w3.org/2000/svg"><g id="Farm_Market" data-name="Farm Market"><g id="Flat"><circle cx="112" cy="272" fill="#f8e868" r="104"/><path d="m181.162 183.964c48.038 100.215-78.962 209.056-170.324 136.072a111.982 111.982 0 1 0 170.324-136.072z" fill="#f6e23d"/><path d="m392 208c0-43.256-52.129-81.116-52.655-81.494-8.552-6.14 1.145-18.844 9.3-13.016 2.428 1.731 59.355 42.986 59.355 94.51 0 10.185-16 10.279-16 0z" fill="#66bb6a"/><path d="m400.644 213.125c-9.325-6.992-14.246-17.7-13.857-30.151.385-12.318 6-26.051 16.253-39.716 21.184-28.248 69.748-38.659 71.805-39.089a8.1 8.1 0 0 1 9.61 7.207c.164 2.095 3.772 51.632-17.412 79.879-16.749 22.334-42.811 39.559-66.399 21.87z" fill="#81c784"/><path d="m389.579 168.067a52.918 52.918 0 0 0 -2.792 14.907c-.389 12.451 4.532 23.159 13.857 30.151 23.588 17.689 49.65.464 66.4-21.87 11.36-15.148 15.589-36.415 17.044-53.208-22.84 26.153-59.212 38.135-94.509 30.02z" fill="#66bb6a"/><path d="m288.677 282.8c-7.268-63.884 53.2-130.934 111.633-85.322 53.95-42.378 119.707 14.422 111.64 85.322-6.122 53.81-48.238 136.581-111.62 87.454-61.821 48.822-105.436-32.801-111.653-87.454z" fill="#ea6049"/><path d="m136 260h-16v-16h24c10.182.087 10.28-16.088 0-16h-24v-24c.069-10.681-16.081-9.944-16 0v24h-16c-31.987.093-31.118 47.99 0 48h16v16h-24c-10.822-.144-9.864 16.12 0 16h24v24c-.1 10.182 16.1 10.279 16 0v-24h16c29.446.215 31.832-48.247 0-48zm-48 0a8 8 0 0 1 0-16h16v16zm48 32h-16v-16h16a8 8 0 0 1 0 16z" fill="#eed60f"/><path d="m408.735 95.265a216.02 216.02 0 0 0 -293.863-10.8l5.048-35.334c1.572-10.493-14.511-12.173-15.84-2.264l-8 56a8.072 8.072 0 0 0 7.92 9.133h56c10.182.087 10.28-16.088 0-16h-34a200.012 200.012 0 0 1 271.416 10.579c7.24 7.235 18.562-4.072 11.319-11.314z" fill="#c8e6c9"/><path d="m408 400h-56c-10.582-.122-10.009 16.107 0 16h34a200.012 200.012 0 0 1 -271.416-10.579c-7.451-7.451-18.409 4.22-11.314 11.314a216.02 216.02 0 0 0 293.863 10.8l-5.048 35.334c-1.541 10.022 14.481 12.507 15.84 2.264l8-56a8.073 8.073 0 0 0 -7.925-9.133z" fill="#c8e6c9"/><path d="m481.988 199.849c-20.282 79.068-89.658 138.445-173.714 143.751 19.545 35.119 51.97 58.312 92.056 26.652 63.382 49.127 105.5-33.644 111.62-87.454 3.873-34.042-9.277-64.825-29.962-82.949z" fill="#de513e"/><circle cx="352" cy="232" fill="#f27c6d" r="24"/><circle cx="460" cy="132" fill="#c8e6c9" r="12"/><circle cx="396" cy="260" fill="#f27c6d" r="12"/><circle cx="432" cy="144" fill="#c8e6c9" r="8"/><circle cx="40" cy="232" fill="#fcf5be" r="8"/><path d="m112 160a112 112 0 1 0 112 112 112.127 112.127 0 0 0 -112-112zm0 208a96 96 0 1 1 96-96 96.108 96.108 0 0 1 -96 96z" fill="#eed60f"/><circle cx="64" cy="200" fill="#fcf5be" r="16"/></g></g></svg>