<svg height="512" viewBox="0 0 512 512" width="512" xmlns="http://www.w3.org/2000/svg"><g id="Planting-3" data-name="Planting"><g id="Flat"><path d="m248 72.769h16v111.231h-16z" fill="#49ad4d"/><path d="m256 360a96.288 96.288 0 0 1 -54.062-16.686c-43.145 5.962-81.938-27.65-81.938-71.314a72.1 72.1 0 0 1 64.05-71.564 96.018 96.018 0 0 1 143.9 0 72.1 72.1 0 0 1 64.05 71.564c0 43.314-39.026 77.344-81.937 71.314a96.293 96.293 0 0 1 -54.063 16.686z" fill="#a1887f"/><path d="m334.242 201.422a210.357 210.357 0 0 1 -154.375 141.54 71.839 71.839 0 0 0 22.071.352 95.924 95.924 0 0 0 108.125 0c42.911 6.03 81.937-28 81.937-71.314a72.115 72.115 0 0 0 -57.758-70.578z" fill="#9c7b70"/><path d="m240 464h-112v-33.138l-128-164.111v-176.139c.166-9.745 11.435-15.728 19.441-15.728 25.693 0 44.433 20.228 44.558 48.1v114.616l8.011 7.776c5.125-28.175 40.131-39.689 61.269-18.552l80.2 80.2c19.587 19.588 29 47.021 26.524 77.275z" fill="#ffead2"/><path d="m384 464h-112v-79.71c-2.476-30.254 6.937-57.687 26.524-77.275l80.2-80.2c21.281-21.28 56.169-9.488 61.269 18.552l8.007-7.767v-114.581c.125-27.907 18.865-48.135 44.558-48.135 8.006 0 19.275 5.983 19.441 15.728v176.139l-127.999 164.111z" fill="#ffead2"/><g fill="#faddc3"><path d="m272 415.949v48.051h112v-33.138l58.9-75.512a258.822 258.822 0 0 1 -170.9 60.599z"/><path d="m128 435.315v28.685h112v-79.71c1.452-17.74-1.19-34.508-7.568-49.3a188.622 188.622 0 0 1 -104.432 100.325z"/><path d="m442.365 242.37-100 100a8 8 0 1 0 11.314 11.315l88.686-88.685a16 16 0 0 0 0-22.629z"/><path d="m169.635 342.37-100-100a16 16 0 0 0 0 22.629l88.686 88.686a8 8 0 1 0 11.314-11.315z"/></g><path d="m408 512h-144v-48a16 16 0 0 1 16-16h112a16 16 0 0 1 16 16z" fill="#81c784"/><path d="m320 496h-16a8 8 0 0 1 0-16h16a8 8 0 0 1 0 16z" fill="#49ad4d"/><path d="m248 512h-144v-48a16 16 0 0 1 16-16h112a16 16 0 0 1 16 16z" fill="#81c784"/><path d="m392 448h-12.345a92.035 92.035 0 0 1 -87.655 64h116v-48a16 16 0 0 0 -16-16z" fill="#66bb6a"/><path d="m232 448h-12.345a92.035 92.035 0 0 1 -87.655 64h116v-48a16 16 0 0 0 -16-16z" fill="#66bb6a"/><path d="m208 496h-16a8 8 0 0 1 0-16h16a8 8 0 0 1 0 16z" fill="#49ad4d"/><circle cx="244" cy="204" fill="#bcaaa4" r="20"/><circle cx="276" cy="244" fill="#bcaaa4" r="12"/><path d="m354.346 87.748c-14.97-5.1-76.2-15.289-97.558 14.239-26.826-34.019-81.088-19.854-97.558-14.239a8.084 8.084 0 0 0 -4.152 11.888c.964 1.505 23.927 36.955 50.762 46.327 17.5 6.111 38.108 7.758 50.948-5.99 12.352 13.395 33.955 11.925 50.948 5.99 26.835-9.372 49.8-44.822 50.762-46.327a8.1 8.1 0 0 0 -4.152-11.888z" fill="#81c784"/><path d="m256.02 80.769c-17.356 0-24.059-18.075-24.19-34.3-.155-19.212 15.57-40.849 17.363-43.253a8 8 0 0 1 12.746-.1c1.832 2.375 17.9 23.756 18.059 42.965.135 16.637-6.688 34.691-23.807 34.691z" fill="#81c784"/><path d="m234.778 63.93c3.467 9.51 10.193 16.839 21.242 16.839h.171c17.119 0 23.942-18.054 23.807-34.691a41.606 41.606 0 0 0 -.868-7.851 55.95 55.95 0 0 1 -44.352 25.703z" fill="#66bb6a"/><path d="m354.346 87.748c-9.344-3.186-36.712-8.351-61.157-4.6a108.018 108.018 0 0 1 -92.384 60.742 51.48 51.48 0 0 0 5.035 2.075c17.5 6.111 38.108 7.758 50.948-5.99 12.352 13.395 33.955 11.924 50.948 5.99 26.835-9.372 49.8-44.822 50.762-46.327a8.1 8.1 0 0 0 -4.152-11.89z" fill="#66bb6a"/><circle cx="188" cy="100" fill="#c8e6c9" r="12"/><circle cx="208" cy="120" fill="#c8e6c9" r="8"/><circle cx="28" cy="108" fill="#fff7f0" r="12"/><circle cx="40" cy="136" fill="#fff7f0" r="8"/><circle cx="484" cy="108" fill="#fff7f0" r="12"/><circle cx="496" cy="136" fill="#fff7f0" r="8"/></g></g></svg>