<svg height="512" viewBox="0 0 512 512" width="512" xmlns="http://www.w3.org/2000/svg"><g id="Planting-2" data-name="Planting"><g id="Flat"><path d="m248 73.756h16v103.231h-16z" fill="#49ad4d"/><path d="m407.232 304.687c-7.703-76.649-72.587-136.687-151.232-136.687s-143.529 60.038-151.232 136.687a196.014 196.014 0 0 0 302.464 0z" fill="#a1887f"/><path d="m333.551 189.313c-40 83.247-135.894 126.4-226.018 98.052a151.274 151.274 0 0 0 -2.765 17.322 196.014 196.014 0 0 0 302.464 0 152.231 152.231 0 0 0 -73.681-115.374z" fill="#9c7b70"/><path d="m144 512h-136a8 8 0 0 1 -8-8v-88c0-27.835 4.384-67.836 25.271-100.326 22.042-34.288 56.605-51.674 102.729-51.674 11.331 0 43.859 8 56 8 30.143 0 61.131-12.406 88.472-23.352 79.3-31.749 93.867 55.037 51.528 71.061-26.449 10.011-61.361 17.4-88.074 30.217-9.718 4.663-17 9.4-21.686 14.054l133.849-35.223 76.632-68.969 13.4-62.53a67.722 67.722 0 0 1 65.879-53.258 8.1 8.1 0 0 1 7.892 9.315c-.831 5-22.24 144.756-26.235 148.342l-128 128c-2.767 3.5-176.379 41.951-180.678 42.943a32.077 32.077 0 0 0 -24.979 31.4 8 8 0 0 1 -8 8z" fill="#ffead2"/><path d="m0 440v64a8 8 0 0 0 8 8h136a8 8 0 0 0 8-8 32.077 32.077 0 0 1 24.979-31.4c4.3-.992 177.911-39.442 180.678-42.943l128-128c-57.657 35.521-69.657 58.343-149.657 98.343-75.662 37.831-172.237 40-336 40z" fill="#faddc3"/><circle cx="88" cy="320" fill="#fff7f0" r="24"/><circle cx="120" cy="368" fill="#fff7f0" r="16"/><circle cx="208" cy="208" fill="#bcaaa4" r="16"/><circle cx="240" cy="224" fill="#bcaaa4" r="8"/><path d="m215.53 100.566c-59.731 0-101.11-57.764-113.617-76.943a8.088 8.088 0 0 1 4.187-11.963c2.576-.854 63.564-20.767 104.08-6.568 46.386 16.255 59.4 45.8 51.717 67.859-6.591 18.922-26.417 27.615-46.367 27.615z" fill="#81c784"/><path d="m247.414 26.412a104.118 104.118 0 0 1 -79.914 61.424c14.213 7.649 30.314 12.73 48.029 12.73 19.95 0 39.776-8.693 46.363-27.615 4.964-14.26 1.267-31.638-14.478-46.539z" fill="#66bb6a"/><path d="m250.091 73.485c-7.68-22.064 5.526-51.672 52.343-68.078 40.9-14.332 102.35 5.394 104.946 6.24a8.1 8.1 0 0 1 4.2 12.01c-1.506 2.283-37.348 56.1-78.239 70.426-28.441 9.966-71.693 12.608-83.25-20.598z" fill="#81c784"/><path d="m407.38 11.647a268.454 268.454 0 0 0 -43.069-9.533 116.066 116.066 0 0 1 -104.511 86.606c17.757 16.7 50.506 13.435 73.541 5.363 40.891-14.33 76.733-68.143 78.239-70.426a8.1 8.1 0 0 0 -4.2-12.01z" fill="#66bb6a"/><g fill="#c8e6c9"><circle cx="144" cy="32.987" r="16"/><circle cx="176" cy="48.987" r="8"/><circle cx="288" cy="48.987" r="16"/><circle cx="320" cy="32.987" r="8"/></g></g></g></svg>