<svg height="512pt" viewBox="0 0 512 512" width="512pt" xmlns="http://www.w3.org/2000/svg"><path d="m512 256c0 141.386719-114.613281 256-256 256s-256-114.613281-256-256 114.613281-256 256-256 256 114.613281 256 256zm0 0" fill="#b46e5a"/><path d="m512 256c0-2.609375-.050781-5.203125-.128906-7.796875l-183.539063-183.535156-164.664062 363.664062 83.496093 83.5c2.933594.097657 5.875.167969 8.835938.167969 141.386719 0 256-114.613281 256-256zm0 0" fill="#915041"/><path d="m163.667969 151.394531h184.667969v276.9375h-184.667969zm0 0" fill="#fff"/><path d="m255.59375 151.394531h92.738281v276.9375h-92.738281zm0 0" fill="#e9edf5"/><path d="m348.332031 151.394531h-184.664062l20-58.667969h144.664062zm0 0" fill="#6df2ee"/><path d="m328.332031 92.726562h-72.738281v58.667969h92.738281zm0 0" fill="#4cd6cc"/><path d="m183.667969 64.667969h144.667969v28.058593h-144.667969zm0 0" fill="#fff"/><path d="m255.59375 64.667969h72.738281v28.058593h-72.738281zm0 0" fill="#e9edf5"/><path d="m276 122.058594c0 11.046875-8.953125 20-20 20s-20-8.953125-20-20c0-11.042969 8.953125-20 20-20s20 8.957031 20 20zm0 0" fill="#fff"/><path d="m256 102.058594c-.136719 0-.269531.019531-.40625.019531v39.960937c.136719.003907.269531.019532.40625.019532 11.046875 0 20-8.953125 20-20s-8.953125-20-20-20zm0 0" fill="#e9edf5"/><path d="m204.792969 275.9375c20.121093-20.121094 82.292969-49.667969 102.414062-29.546875 20.121094 20.121094-9.425781 82.292969-29.546875 102.414063-20.121094 20.121093-52.746094 20.121093-72.867187 0-20.121094-20.121094-20.121094-52.746094 0-72.867188zm0 0" fill="#b46e5a"/><path d="m307.207031 246.390625c-.171875-.171875-.355469-.328125-.53125-.496094l-102.382812 102.382813c.171875.175781.328125.355468.5.527344 20.121093 20.121093 52.746093 20.121093 72.867187 0 20.121094-20.121094 49.667969-82.292969 29.546875-102.414063zm0 0" fill="#915041"/><path d="m224.015625 295.160156c20.121094-20.121094 73.683594-58.273437 83.191406-48.769531 9.507813 9.507813-28.648437 63.070313-48.769531 83.195313-20.121094 20.117187-44.136719 28.722656-53.644531 19.21875-9.503907-9.507813-.898438-33.523438 19.222656-53.644532zm0 0" fill="#d79b8c"/><path d="m306.644531 245.925781-102.335937 102.335938c.160156.183593.3125.371093.484375.542969 9.507812 9.503906 33.523437.898437 53.644531-19.222657 20.121094-20.121093 58.273438-73.683593 48.769531-83.191406-.171875-.171875-.363281-.324219-.5625-.464844zm0 0" fill="#b46e5a"/></svg>