<svg id="Layer_1" height="512" viewBox="0 0 64 64" width="512" xmlns="http://www.w3.org/2000/svg" data-name="Layer 1"><path d="m8.73 14.5a29.673 29.673 0 0 1 6.482-3.258 9.53 9.53 0 0 0 1.733-.807c2.295-1.415 3.855-4.776 6.564-5.528 2.582-.715 5.653 1.331 8.491 1.331 2.389 0 4.987-2.171 7.2-1.659 2.312.536 3.677 3.646 5.719 4.669l5.081 2.752-19 12-20-5-3-4z" fill="#70b833"/><path d="m53.512 14.086-46.823 5.349a26.335 26.335 0 0 0 -2.689 11.065c0 14.083 12.536 25.5 28 25.5s28-11.417 28-25.5a25.434 25.434 0 0 0 -6.488-16.414z" fill="#7cbf43"/><path d="m12 17.423c.384.5.767.989 1.152 1.425 1.365 1.542 3.63 1.756 5.013 3.383 1.44 1.693 2.1 4.106 2.652 6.213q.306 1.164.542 2.346c.235 1.184.683 2.4.822 3.627a21.548 21.548 0 0 0 .4 3.909 10.7 10.7 0 0 0 2.338 4.128l1.056 1.159-.135-.613a29.318 29.318 0 0 1 .687-14.233 11.054 11.054 0 0 1 2-4.221 34.716 34.716 0 0 1 11.18-9.546l.252-.135c-3.35-1-6.581-3.586-9.348-3.7-3.607-.145-6.522 1.9-9.066 2.6-5.42 1.5-6.078.523-9.578 3.612" fill="#a0d177"/><g fill="#70b833"><path d="m31.29 27.185c.206-.02.409-.032.608-.039a7.6 7.6 0 0 0 6.043-3.64 12.634 12.634 0 0 1 4.17-3.957 91.762 91.762 0 0 1 9.094-4.125 7.413 7.413 0 0 0 4.453-4.392 1 1 0 0 0 -1.318-1.287l-1.919.791a6.173 6.173 0 0 1 -1.2.387c-11.652 2.328-18.634 8.277-22.696 13.623a11.072 11.072 0 0 0 -2 4.221c-.236.781-.426 1.569-.595 2.36.181-.261 2.578-3.679 5.36-3.942z"/><path d="m21.424 31.132s-1.138-6.408-3.259-8.9c-1.383-1.627-3.648-1.841-5.013-3.383-1.526-1.726-3.015-4.309-4.652-4.849-3.575-1.179-2.538 1.855-3.009 2.725a1.88 1.88 0 0 0 .33 2.123l3.679 2.491c3.343 3.715 4.469 5.274 9.027 7.323a6.2 6.2 0 0 1 2.933 2.545z"/><path d="m21.46 31.207.38.793a5.478 5.478 0 0 0 -.38-.793z"/></g><path d="m12 17.423c.384.5.767.989 1.152 1.425 1.365 1.542 3.63 1.756 5.013 3.383 1.44 1.693 2.1 4.106 2.652 6.213q.306 1.164.542 2.346c.235 1.184.683 2.4.822 3.627a21.548 21.548 0 0 0 .4 3.909 10.7 10.7 0 0 0 2.338 4.128l1.056 1.159-.135-.613a29.318 29.318 0 0 1 .687-14.233 11.054 11.054 0 0 1 2-4.221 34.716 34.716 0 0 1 11.18-9.546l.252-.135c-3.35-1-6.581-3.586-9.348-3.7-3.607-.145-6.522 1.9-9.066 2.6-5.42 1.5-6.078.523-9.578 3.612" fill="#a0d177"/><path d="m53.559 23.608c-8.415-3.5-20.062.514-23.965 11.435-2.264 6.332.478 16.957.406 19.957-5.362-7.894-12-24-25.956-25.715-.025.408-.044.815-.044 1.215 0 14.083 12.536 25.5 28 25.5s28-11.417 28-25.5c0-.451-.019-.9-.048-1.352a13.775 13.775 0 0 0 -6.393-5.54z" fill="#a0d177"/><path d="m12 17.423c.384.5.767.989 1.152 1.425 1.365 1.542 3.63 1.756 5.013 3.383a15.014 15.014 0 0 1 2.57 5.9c.219.827.44 1.653.593 2.495.224 1.237.707 2.5.853 3.79a21.548 21.548 0 0 0 .4 3.909 10.7 10.7 0 0 0 2.338 4.128l3.081 5.547-.217-.5a27.358 27.358 0 0 1 -1.3-18.59l.043-.14a11.054 11.054 0 0 1 2-4.221 34.716 34.716 0 0 1 11.181-9.549l.252-.135c-3.35-1-6.581-3.586-9.348-3.7-3.607-.145-6.522 1.9-9.066 2.6-5.42 1.5-6.078.523-9.578 3.612" fill="#a0d177"/><path d="m26.526 28.767a11.072 11.072 0 0 1 2-4.221 34.555 34.555 0 0 1 2.241-2.65 38.309 38.309 0 0 0 -3.767 2.104c-3 2-3 14-3 14-2.107-2.107-1.928-6.36-2.039-9.122-.076-1.894-.095-4.145-.961-5.878-1-2-5-5-5-5l-2.053 1.54c1.341.959 3.076 1.348 4.218 2.691a15.021 15.021 0 0 1 2.57 5.9c.219.828.441 1.653.593 2.495.224 1.237.707 2.5.853 3.79a21.548 21.548 0 0 0 .4 3.909 10.686 10.686 0 0 0 1.352 2.875c.775 1.157 1.566 2.3 2.243 3.52l1.824 3.28-.4-.926a26.7 26.7 0 0 1 -1.086-18.265z" fill="#8ec95d"/><path d="m23.439 17.988a11.141 11.141 0 0 1 8.243-.232l2.511.942a35.173 35.173 0 0 1 5.514-3.698l.252-.135c-3.35-1-6.581-3.586-9.348-3.7-3.607-.145-6.522 1.9-9.066 2.6-5.42 1.5-6.078.523-9.578 3.612l.033.043c.384.5.767.989 1.152 1.425a5.813 5.813 0 0 0 1.66 1.228 10.631 10.631 0 0 1 4.188-1.073 11.725 11.725 0 0 0 4.439-1.012z" fill="#8ec95d"/><path d="m56.414 30.871a1 1 0 0 0 -1.325.5c-.882 1.943-3.658 3.525-5.626 4.4a32.878 32.878 0 0 0 -.484-9.96 1 1 0 1 0 -1.958.4 31 31 0 0 1 .039 12.124c-3.318-2.494-7.672-6.238-8.142-8.013a1 1 0 1 0 -1.933.512c.791 2.99 7.463 8.073 9.588 9.631a31.133 31.133 0 0 1 -2.312 6.021c-5.819-4.187-11.695-9.191-12-10.8a1 1 0 0 0 -1.965.373c.578 3.046 9.746 9.86 13 12.193a30.824 30.824 0 0 1 -3.772 5.12l-1.941 2.123a29.8 29.8 0 0 0 3.5-.871 32.9 32.9 0 0 0 4.338-6.052c.007-.01.018-.013.025-.022a.937.937 0 0 0 .038-.086c.251-.453.484-.914.713-1.377 1.517-.611 7.044-2.937 8.825-5.074a1 1 0 0 0 -1.536-1.281c-.981 1.178-3.858 2.654-6.1 3.67a33.375 33.375 0 0 0 1.262-3.984.943.943 0 0 0 .064-.264q.251-1.038.435-2.092c1.611-.61 6.3-2.62 7.771-5.864a1 1 0 0 0 -.504-1.327z" fill="#cff2b1"/><path d="m15.529 47.492c.523-1.735 2.117-7.434 1.447-10.4a1 1 0 0 0 -1.952.441c.4 1.764-.279 5.16-.916 7.622a34.284 34.284 0 0 1 -3.615-10.726 1 1 0 0 0 -1.986.241 36.287 36.287 0 0 0 4.969 13.309.983.983 0 0 0 .327.5 25.525 25.525 0 0 0 2.397 3.069 29.247 29.247 0 0 0 8.926 3.674 19.719 19.719 0 0 1 -9.597-7.73z" fill="#cff2b1"/></svg>