<svg id="Capa_1" enable-background="new 0 0 512 512" height="512" viewBox="0 0 512 512" width="512" xmlns="http://www.w3.org/2000/svg"><g><g><path d="m174.79 512c-8.291 0-15-6.709-15-15v-45c0-101.47-17.271-201.387-51.328-296.982-2.769-7.808 1.304-16.392 9.097-19.175 7.822-2.783 16.377 1.289 19.175 9.097 35.2 98.848 53.057 202.148 53.057 307.061v45c-.001 8.29-6.71 14.999-15.001 14.999z" fill="#ffb64c"/></g><g><g><path d="m121.068 162.08c-2.373 0-4.746-.571-6.899-1.685-.469-.234-11.44-5.977-23.965-16.274-17.109-13.638-29.692-29.077-37.207-45.762-7.412-16.406-10.562-35.464-9.624-58.257.908-16.362 3.75-28.154 3.867-28.652.996-4.058 3.633-7.529 7.295-9.551 3.647-2.065 7.983-2.446 11.968-1.143 1.26.425 12.803 4.351 26.763 13.623 13.154 8.496 31.216 23.657 41.792 47.021v.015c10.313 22.837 9.8 46.582 7.559 62.476-2.71 17.08-7.529 28.564-7.734 29.048-1.641 3.853-4.805 6.841-8.73 8.247-1.657.601-3.371.894-5.085.894z" fill="#fed843"/></g></g><path d="m193.842 48.007c-1.626-3.691-4.658-6.563-8.423-7.983-3.765-1.406-7.954-1.23-11.602.425-33.964 15.721-54.767 50.706-59.004 92.203-8.553-7.841-17.811-14.791-28.345-19.532-25.752-11.602-53.306-11.748-77.578-.469-7.427 3.442-10.708 12.217-7.383 19.688 21.211 47.681 66.021 77.783 111.152 77.783 8.877 0 17.769-1.157 26.484-3.574.04-.011.071-.046.112-.057 24.293-6.74 44.18-24.119 55.992-49.001 15.44-32.52 14.928-72.423-1.405-109.483z" fill="#ffb64c"/><g><g><path d="m414.79 512c-8.291 0-15-6.709-15-15v-45c0-101.47-17.271-201.387-51.328-296.982-2.769-7.808 1.304-16.392 9.097-19.175 7.822-2.783 16.377 1.289 19.175 9.097 35.2 98.848 53.057 202.148 53.057 307.061v45c-.001 8.29-6.71 14.999-15.001 14.999z" fill="#ff9100"/></g></g><g><g><path d="m361.068 162.08c-2.373 0-4.746-.571-6.899-1.685-.469-.234-11.44-5.977-23.965-16.274-17.109-13.638-29.692-29.077-37.207-45.762-7.412-16.406-10.562-35.464-9.624-58.257.908-16.362 3.75-28.154 3.867-28.652.996-4.058 3.633-7.529 7.295-9.551 3.647-2.065 7.983-2.446 11.968-1.143 1.26.425 12.803 4.351 26.763 13.623 13.154 8.496 31.216 23.657 41.792 47.021v.015c10.313 22.837 9.8 46.582 7.559 62.476-2.71 17.08-7.529 28.564-7.734 29.048-1.641 3.853-4.805 6.841-8.73 8.247-1.657.601-3.371.894-5.085.894z" fill="#ffb64c"/></g></g><path d="m226.508 132.924c-1.274-3.809-4.043-6.943-7.661-8.701s-7.822-1.978-11.587-.63c-35.262 12.576-59.143 45.531-67.11 86.473-7.815-8.584-16.412-16.344-26.479-22.02-24.609-13.887-52.061-16.494-77.183-7.485-7.705 2.769-11.763 11.206-9.126 18.955 17.944 52.705 64.453 87.935 112.734 87.935 4.955 0 9.932-.584 14.899-1.349.004 0 .009.002.013.002.879 0 1.772-.073 2.666-.234 24.873-4.482 46.318-20.039 60.352-43.799 18.325-30.983 21.416-70.768 8.482-109.147z" fill="#fed843"/><path d="m251.381 220.434c-.938-3.911-3.398-7.28-6.855-9.36-3.457-2.065-7.617-2.651-11.484-1.685-36.273 9.36-63.036 40.018-74.667 80.061-7.011-9.263-14.879-17.772-24.401-24.338-23.262-16.055-50.259-21.152-76.157-14.414-7.925 2.065-12.729 10.093-10.796 18.047 13.901 57.437 61.626 98.174 113.232 98.174 2.915 0 5.845-.132 8.774-.396.033-.004.062-.026.095-.029 25.126-2.252 47.822-15.76 63.933-38.101 21.05-29.195 27.73-68.54 18.326-107.959z" fill="#ffb64c"/><path d="m268.241 309.862c-.571-3.984-2.725-7.573-5.977-9.946-3.237-2.373-7.266-3.354-11.294-2.725-36.984 6.041-66.42 34.158-81.625 72.988-6.151-9.868-13.222-19.063-22.115-26.464-21.665-18.032-48.12-25.547-74.517-21.24-8.071 1.333-13.579 8.877-12.393 16.978 9.082 61.772 57.524 108.398 112.676 108.442h.015c.033 0 .064-.02.097-.02.027.002.051.018.079.02 25.195 0 48.97-11.411 66.987-32.153 23.599-27.144 33.824-65.743 28.067-105.88z" fill="#fed843"/><path d="m433.842 48.007c-1.626-3.691-4.658-6.563-8.423-7.983-3.765-1.406-7.954-1.23-11.602.425-33.964 15.721-54.767 50.706-59.004 92.203-8.553-7.841-17.811-14.791-28.345-19.532-25.752-11.602-53.306-11.748-77.578-.469-7.427 3.442-10.708 12.217-7.383 19.688 21.211 47.681 66.02 77.783 111.152 77.783 8.877 0 17.769-1.157 26.484-3.574.04-.011.071-.046.112-.057 24.293-6.74 44.18-24.119 55.992-49.001 15.44-32.52 14.928-72.423-1.405-109.483z" fill="#ff9100"/><path d="m466.508 132.924c-1.274-3.809-4.043-6.943-7.661-8.701s-7.822-1.978-11.587-.63c-35.262 12.576-59.143 45.531-67.11 86.473-7.815-8.584-16.412-16.344-26.479-22.02-24.609-13.887-52.061-16.494-77.183-7.485-7.705 2.769-11.763 11.206-9.126 18.955 17.944 52.705 64.453 87.935 112.734 87.935 4.955 0 9.932-.584 14.899-1.349.004 0 .009.002.013.002.879 0 1.772-.073 2.666-.234 24.873-4.482 46.318-20.039 60.352-43.799 18.325-30.983 21.416-70.768 8.482-109.147z" fill="#ffb64c"/><path d="m491.381 220.434c-.938-3.911-3.398-7.28-6.855-9.36-3.457-2.065-7.617-2.651-11.484-1.685-36.273 9.36-63.036 40.018-74.667 80.061-7.011-9.263-14.879-17.772-24.401-24.338-23.262-16.055-50.259-21.152-76.157-14.414-7.925 2.065-12.729 10.093-10.796 18.047 13.901 57.437 61.626 98.174 113.232 98.174 2.915 0 5.845-.132 8.774-.396.033-.004.062-.026.095-.029 25.126-2.252 47.822-15.76 63.933-38.101 21.05-29.195 27.73-68.54 18.326-107.959z" fill="#ff9100"/><path d="m510.219 309.862c-.571-3.984-2.725-7.573-5.977-9.946-3.237-2.373-7.266-3.354-11.294-2.725-36.984 6.041-66.42 34.158-81.625 72.988-6.151-9.868-13.222-19.063-22.115-26.464-21.665-18.032-48.12-25.547-74.517-21.24-8.071 1.333-13.579 8.877-12.393 16.978 9.082 61.772 57.524 108.398 112.676 108.442h.015c.033 0 .064-.02.097-.02.027.002.051.018.079.02 25.195 0 48.97-11.411 66.987-32.153 23.599-27.144 33.824-65.743 28.067-105.88z" fill="#ffb64c"/></g></svg>