<svg id="Capa_1" enable-background="new 0 0 493.621 493.621" height="512" viewBox="0 0 493.621 493.621" width="512" xmlns="http://www.w3.org/2000/svg"><g><g><path d="m364.739 181.515-8.84 28.17-95.22 273.81c-4.71 13.54-23.88 13.49-28.51-.08l-93.45-273.73-9.85-28.17z" fill="#f6e2c4"/></g><path d="m128.869 181.515 9.85 28.17 93.45 273.73c4.63 13.57 23.8 13.62 28.51.08l7.006-20.146-68.559-200.821c-5.498-16.105 6.473-32.842 23.491-32.842h126.327l6.956-20.001 8.84-28.17z" fill="#f8deb6"/><path d="m206.691 181.515-57.581 58.609 5.378 15.752 72.946-74.361z" fill="#f7d8a4"/><path d="m251.195 181.515-21.78 22.936-68.945 68.946 5.355 15.688 106.057-107.57z" fill="#f8deb6"/><path d="m160.47 273.397 5.356 15.688 32.043-32.5c-1.215-14.029 9.824-26.898 24.748-26.898h1.772l47.494-48.171h-20.686l-21.78 22.936z" fill="#f7d8a4"/><path d="m320.137 181.515h-21.835l-126.473 125.156 5.384 15.771z" fill="#f8deb6"/><g fill="#f7d8a4"><path d="m271.283 229.686 48.854-48.171h-21.835l-48.678 48.171z"/><path d="m177.213 322.442 31.697-31.254-5.413-15.855-31.668 31.338z"/></g><path d="m339.258 181.515-156.07 158.428 5.367 15.721 170.859-174.149z" fill="#f8deb6"/><g fill="#f7d8a4"><path d="m188.555 355.664 31.43-32.034-5.334-15.625-31.463 31.938z"/><path d="m312.153 229.686 47.261-48.171h-20.156l-47.455 48.171z"/></g><path d="m373.851 174.567c10.585 14.645.121 35.119-17.949 35.119h-217.188c-18.07 0-28.534-20.474-17.949-35.119l20.165-25.087h201.908 17.217z" fill="#ffe1f2"/><g><path d="m373.851 174.567-13.796-25.086h-17.217-201.907l-20.165 25.086c-3.442 4.763-4.658 10.148-4.11 15.239 6.711 3.823 14.395 5.883 22.148 5.884h.002c6.058 0 11.957-1.208 17.53-3.59l15.4-6.581c6.751-2.885 13.896-4.348 21.236-4.348 8.461 0 16.922 2.024 24.466 5.854l9.169 4.655c6.229 3.162 13.215 4.835 20.201 4.835s13.972-1.673 20.2-4.835l9.17-4.655c7.544-3.83 16.005-5.854 24.466-5.854 7.341 0 14.485 1.463 21.237 4.349l15.398 6.579c5.574 2.383 11.474 3.591 17.532 3.591 8.169 0 16.248-2.297 23.208-6.523.386-4.901-.867-10.034-4.168-14.6z" fill="#ffd1eb"/><path d="m134.51 112.298c0 .497-.194.973-.541 1.328l-16.354 16.735c-12.412 12.701-10.937 33.394 3.151 44.206 8.49 6.516 19.835 7.946 29.677 3.74l15.399-6.581c18.789-8.029 40.168-7.324 58.387 1.925l9.17 4.655c8.428 4.279 18.392 4.279 26.821 0l9.17-4.655c18.219-9.249 39.599-9.954 58.387-1.925l15.399 6.581c9.842 4.206 21.186 2.776 29.677-3.74 14.088-10.812 15.563-31.505 3.151-44.206l-16.354-16.735c-.347-.355-.541-.832-.541-1.328-.002-62.02-50.28-112.298-112.3-112.298-62.021 0-112.299 50.278-112.299 112.298z" fill="#ffd1eb"/><path d="m354.822 212.781-160.275 160.435 5.37 15.73 143.509-143.395z" fill="#f8deb6"/><g fill="#f7d8a4"><path d="m199.917 388.946 31.59-31.565-5.384-15.772-31.576 31.607z"/><path d="m354.822 212.781-16.888 16.905h11.009z"/></g><path d="m330.253 283.43-124.346 123.06 5.41 15.846 108.311-108.354z" fill="#f8deb6"/><path d="m237.574 375.151-31.667 31.339 3.837 11.24 1.573 4.606 31.58-31.593z" fill="#f7d8a4"/><path d="m307.063 350.113-89.797 89.65 5.363 15.709 73.203-73.062z" fill="#f8deb6"/><path d="m254.228 423.934-5.365-15.716-31.597 31.545 5.363 15.709z" fill="#f7d8a4"/><path d="m272.035 450.839 11.028-31.713-54.438 53.91 3.543 10.379c.617 1.808 1.487 3.378 2.552 4.706z" fill="#f8deb6"/></g><path d="m233.398 178.307c8.428 4.279 18.392 4.279 26.821 0l9.17-4.655c18.219-9.249 39.598-9.954 58.387-1.926l14.888 6.362c9.814 4.194 21.223 3.136 29.794-3.224 10.83-8.036 14.459-21.808 10.326-33.605-1.381 1.658-2.966 3.191-4.758 4.566-8.49 6.516-19.835 7.946-29.677 3.74l-15.399-6.58c-18.789-8.029-40.168-7.324-58.387 1.925l-9.169 4.655c-8.428 4.279-18.392 4.279-26.82 0l-9.17-4.656c-18.219-9.25-39.598-9.955-58.387-1.926-2.128.909-3.962-1.769-2.344-3.424 3.591-4.156 5.671-9.378 6.065-14.857 4.186-58.202 52.733-104.12 112.004-104.12 10.522 0 20.697 1.425 30.355 4.13-19.242-15.465-43.68-24.712-70.288-24.712-62.021 0-112.299 50.278-112.299 112.298 0 .497-.194.973-.541 1.328l-15.942 16.313c-11.314 11.577-11.754 30.253-.428 41.819 8.672 8.856 21.718 11.303 32.844 6.549l15.399-6.581c18.789-8.029 40.169-7.324 58.388 1.926z" fill="#ffc3e5"/><path d="m228.625 473.036 3.543 10.379c.617 1.808 1.487 3.378 2.552 4.706l30.886-30.859-5.319-15.581z" fill="#f7d8a4"/></g></svg>