<svg height="512" viewBox="0 0 512 512" width="512" xmlns="http://www.w3.org/2000/svg"><g id="Insecticide"><g id="Flat"><path d="m71.005 511.992c-35.116-.536-63-29.843-63-64.963v-255.029h47.995v255.536c0 8.605 6.6 16.02 15.194 16.444a16.016 16.016 0 0 0 16.806-15.98v-336c0-35.346 36.654-64 72-64 42.337 0 84.257 36.731 79.565 80h-48.846c5.4-16.614-10.9-32-26.719-32-13.255 0-28 10.745-28 24v328a64.07 64.07 0 0 1 -64.995 63.992z" fill="#e2dbd5"/><path d="m312 8h48v64h-48z" fill="#49ad4d"/><path d="m384 128h-96v-56a8 8 0 0 1 8-8h80a8 8 0 0 1 8 8z" fill="#66bb6a"/><path d="m376 64h-16.548a78.88 78.88 0 0 1 -48.94 64h73.488v-56a8 8 0 0 0 -8-8z" fill="#49ad4d"/><rect fill="#81c784" height="400" rx="40" width="352" x="160" y="112"/><path d="m392 16h-112a8 8 0 0 1 0-16h112a8 8 0 0 1 0 16z" fill="#81c784"/><path d="m497.214 120.976c-31.296 166.214-167.504 295.386-337.214 316.107v34.917a40.045 40.045 0 0 0 40 40h272a40.045 40.045 0 0 0 40-40v-320a39.937 39.937 0 0 0 -14.786-31.024z" fill="#66bb6a"/><g fill="#49ad4d"><circle cx="200" cy="160" r="8"/><circle cx="472" cy="160" r="8"/><circle cx="200" cy="464" r="8"/><circle cx="472" cy="464" r="8"/></g><path d="m56 80h-48v-55.454c0-13.427 10.987-24.769 24.411-24.546a24.029 24.029 0 0 1 23.589 24z" fill="#e2dbd5"/><rect fill="#d9d1cc" height="144" rx="8" width="64" y="64"/><path d="m0 182.545v17.455a8 8 0 0 0 8 8h48a8 8 0 0 0 8-8v-67.3a88.128 88.128 0 0 1 -64 49.845z" fill="#c4bcb7"/><path d="m88 397.381v50.619a16.016 16.016 0 0 1 -16.806 15.98c-8.594-.424-15.194-7.839-15.194-16.444v-27.369a206.825 206.825 0 0 1 -48 20.2v6.664c0 35.12 27.889 64.428 63.005 64.963a64.07 64.07 0 0 0 64.995-63.994v-110.948a208.856 208.856 0 0 1 -48 60.329z" fill="#d9d1cc"/><circle cx="288" cy="144" fill="#c8e6c9" r="16"/><circle cx="328" cy="144" fill="#c8e6c9" r="8"/><circle cx="32" cy="91.716" fill="#efebe8" r="16"/><circle cx="32" cy="128" fill="#efebe8" r="8"/><circle cx="336" cy="312" fill="#fff" r="136"/><path d="m270.627 272h-22.627a8 8 0 0 1 0-16h22.627a8 8 0 0 1 0 16z" fill="#efebe8"/><path d="m288 256a8 8 0 0 1 -8-8v-22.627a8 8 0 0 1 16 0v22.627a8 8 0 0 1 -8 8z" fill="#efebe8"/><path d="m287.6 314.177-16.971-16.971c-30.652-30.693 16.3-74.209 45.256-45.255l16.971 16.971a8.075 8.075 0 0 1 0 11.314l-33.942 33.941a8 8 0 0 1 -11.314 0z" fill="#e2dbd5"/><path d="m332.854 268.922-16.971-16.971a32.2 32.2 0 0 0 -13.248-8.22 55.977 55.977 0 0 1 -25.429 60.054l10.394 10.392a8 8 0 0 0 11.314 0l33.942-33.941a8.075 8.075 0 0 0 -.002-11.314z" fill="#d9d1cc"/><path d="m281.94 331.146-13.474 13.475-12.279-4.093a8 8 0 0 0 -5.06 15.18c15.977 5.2 20.393 8.485 25.157 3.724l16.971-16.971z" fill="#d9d1cc"/><path d="m380.041 249.421-5.657-16.971a8 8 0 0 0 -15.18 5.061l4.096 12.279-13.475 13.475 11.315 11.314 16.97-16.971a8 8 0 0 0 1.931-8.187z" fill="#d9d1cc"/><path d="m325.035 401.19 13.475-13.474-11.31-11.316-16.97 16.971c-5.616 5.615.4 12.126 3.724 25.158a8 8 0 0 0 15.18-5.06z" fill="#c4bcb7"/><path d="m437.206 295.273-16.97-5.657a8 8 0 0 0 -8.187 1.933l-16.971 16.971 11.315 11.314 13.473-13.475 12.28 4.094a8 8 0 1 0 5.06-15.18z" fill="#c4bcb7"/><path d="m315.882 376.4-33.942-33.939a24.16 24.16 0 0 1 0-33.941l45.26-45.255a24.032 24.032 0 0 1 33.942 0l33.942 33.941a56.064 56.064 0 0 1 0 79.2 56.065 56.065 0 0 1 -79.202-.006z" fill="#e2dbd5"/><path d="m395.079 297.206-19.228-19.227a119.976 119.976 0 0 1 -60.216 98.176l.247.247a56.064 56.064 0 0 0 79.2 0 56.064 56.064 0 0 0 -.003-79.196z" fill="#d9d1cc"/><path d="m336 168c-79.4 0-144 64.6-144 144s64.6 144 144 144 144-64.6 144-144-64.6-144-144-144zm-128 144a127.94 127.94 0 0 1 220.778-88.093l-180.87 180.871a127.651 127.651 0 0 1 -39.908-92.778zm128 128a127.314 127.314 0 0 1 -75.777-24.909l178.868-178.868a127.93 127.93 0 0 1 -103.091 203.777z" fill="#ea6049"/><circle cx="296" cy="320" fill="#efebe8" r="8"/><circle cx="280" cy="272" fill="#efebe8" r="8"/></g></g></svg>